<svg xmlns="http://www.w3.org/2000/svg" width="40" height="41" fill="#fff"><path d="M12.317 8.439a.628.628 0 0 0-.626.63c0 .766-.618 1.388-1.378 1.388-.76 0-1.378-.622-1.378-1.387s.618-1.388 1.378-1.388a.629.629 0 0 0 .626-.63c0-.349-.28-.631-.626-.631a2.643 2.643 0 0 0-2.63 2.649c0 1.46 1.18 2.648 2.63 2.648s2.63-1.188 2.63-2.648c0-.349-.28-.631-.626-.631ZM12.317 15.838a.628.628 0 0 0-.626.631c0 .765-.618 1.387-1.378 1.387-.76 0-1.378-.622-1.378-1.387s.618-1.387 1.378-1.387a.629.629 0 0 0 .626-.631c0-.348-.28-.63-.626-.63a2.643 2.643 0 0 0-2.63 2.648c0 1.46 1.18 2.649 2.63 2.649s2.63-1.189 2.63-2.649c0-.348-.28-.63-.626-.63ZM19.666 17.184H14.99a.628.628 0 0 0-.627.63c0 .349.28.63.627.63h4.676a.628.628 0 0 0 .626-.63c0-.348-.28-.63-.626-.63ZM19.666 14.493H14.99a.628.628 0 0 0-.627.63c0 .349.28.631.627.631h4.676a.628.628 0 0 0 .626-.63c0-.349-.28-.631-.626-.631ZM18.33 24.583h-3.34a.628.628 0 0 0-.627.63c0 .349.28.631.627.631h3.34a.628.628 0 0 0 .626-.63c0-.349-.28-.631-.626-.631ZM19.666 21.893H14.99a.628.628 0 0 0-.627.63c0 .349.28.63.627.63h4.676a.628.628 0 0 0 .626-.63c0-.348-.28-.63-.626-.63ZM25.679 9.784h-10.69a.628.628 0 0 0-.626.63c0 .35.28.632.627.632h10.688a.628.628 0 0 0 .627-.631c0-.348-.28-.63-.626-.63ZM23.006 7.094H14.99a.628.628 0 0 0-.627.63c0 .349.28.631.627.631h8.016a.629.629 0 0 0 .627-.63c0-.349-.28-.631-.627-.631ZM12.317 23.238a.628.628 0 0 0-.626.63c0 .766-.618 1.388-1.378 1.388-.76 0-1.378-.622-1.378-1.388 0-.765.618-1.387 1.378-1.387a.629.629 0 0 0 .626-.63c0-.349-.28-.631-.626-.631a2.643 2.643 0 0 0-2.63 2.648c0 1.46 1.18 2.649 2.63 2.649s2.63-1.188 2.63-2.649c0-.348-.28-.63-.626-.63Z"/><path d="M28.35.367H5.636a1.971 1.971 0 0 0-1.962 1.976v28.252c0 1.09.88 1.976 1.962 1.976h11.357a.629.629 0 0 0 .627-.63c0-.349-.28-.631-.627-.631H5.636a.713.713 0 0 1-.71-.715V2.343c0-.394.319-.715.71-.715H28.35c.392 0 .71.32.71.715v20.853c0 .348.28.63.626.63a.628.628 0 0 0 .627-.63V2.343c0-1.09-.88-1.976-1.963-1.976Z"/><path d="M34.264 25.94a2.3 2.3 0 0 0-1.625.46c-.366-.62-.992-1.06-1.716-1.132a2.3 2.3 0 0 0-1.624.46c-.367-.62-.992-1.06-1.716-1.133a2.3 2.3 0 0 0-1.278.242v-8.032c0-.652-.276-1.277-.756-1.714a2.297 2.297 0 0 0-1.775-.586c-1.157.116-2.062 1.17-2.062 2.396v8.052l-1.841 1.854a3.987 3.987 0 0 0-1.057 3.739l1.398 5.981c.566 2.424 2.689 4.117 5.162 4.117h5.649c2.924 0 5.302-2.396 5.302-5.34v-6.967c0-1.227-.905-2.28-2.061-2.397Zm.809 9.364c0 2.249-1.817 4.078-4.05 4.078h-5.65a4.04 4.04 0 0 1-3.942-3.144l-1.397-5.982a2.728 2.728 0 0 1 .722-2.558l.956-.962v2.177c0 .349.28.631.626.631a.628.628 0 0 0 .626-.63V16.9c0-.587.41-1.088.934-1.141.301-.03.59.064.81.266.219.199.344.483.344.78v11.099c0 .348.28.63.627.63a.628.628 0 0 0 .626-.63v-1.01c0-.296.125-.58.344-.78.221-.2.509-.295.81-.265.523.053.933.554.933 1.141v1.586c0 .348.28.63.627.63a.629.629 0 0 0 .626-.63v-1.009c0-.296.125-.58.344-.78.221-.201.51-.296.81-.265.524.052.934.554.934 1.141v1.586c0 .348.28.63.626.63a.629.629 0 0 0 .627-.63v-1.01c0-.296.125-.58.343-.779.222-.202.51-.296.81-.266.524.053.934.554.934 1.142v6.967Z"/></svg>