<svg xmlns="http://www.w3.org/2000/svg" width="73" height="74" fill="none"><circle cx="36.5" cy="37" r="36.5" fill="#BA1735"/><g fill="#fff" clip-path="url(#a)"><path d="m53.769 26.664-7.019-7.018a.498.498 0 0 0-.352-.146H30.991a3.036 3.036 0 0 0-3.032 3.033v7.556h-3.44a4.438 4.438 0 0 0-4.433 4.433v14.545a4.438 4.438 0 0 0 4.433 4.433h17.307a4.438 4.438 0 0 0 4.432-4.379h4.624a3.036 3.036 0 0 0 3.033-3.032V27.017a.498.498 0 0 0-.146-.353Zm-8.506 22.403a3.44 3.44 0 0 1-3.437 3.437H24.519a3.441 3.441 0 0 1-3.437-3.437V34.522a3.441 3.441 0 0 1 3.437-3.437h4.686a3.44 3.44 0 0 1 2.81 1.459l1.534 2.18a4.438 4.438 0 0 0 3.626 1.881h4.651a3.441 3.441 0 0 1 3.437 3.437v9.025Zm5.619-.942h-4.623v-8.083a4.438 4.438 0 0 0-4.433-4.433h-4.651a3.441 3.441 0 0 1-2.811-1.46l-1.534-2.178a4.438 4.438 0 0 0-3.625-1.882h-.25v-7.556c0-1.123.913-2.037 2.036-2.037H45.9v3.986c0 1.227.731 2.325 1.863 2.799a.496.496 0 0 0 .652-.267.498.498 0 0 0-.267-.652 2.033 2.033 0 0 1-1.252-1.88V21.2l5.318 5.318H49.93a.498.498 0 0 0 0 .997h2.99v18.574a2.039 2.039 0 0 1-2.037 2.036Z"/><path d="M41.54 26.689h-.172v-1.173a4.516 4.516 0 0 0 1.61-3.456v-.328a.498.498 0 0 0-.498-.498h-4.713c-.633 0-1.222.252-1.658.71a2.32 2.32 0 0 0-.276.352 2.21 2.21 0 0 0-1.278-.404h-.314c-1.225 0-2.22.996-2.22 2.22v.013c0 .861.493 1.61 1.211 1.977v.587h-.172c-.463 0-.897.18-1.224.507a1.733 1.733 0 0 0 1.224 2.955h.175A4.072 4.072 0 0 0 37.3 34.11a4.072 4.072 0 0 0 4.065-3.96h.175c.462 0 .897-.18 1.224-.506a1.733 1.733 0 0 0-1.224-2.955Zm-4.71-4.058c.247-.259.58-.401.937-.401h4.21a3.533 3.533 0 0 1-3.524 3.358 1.98 1.98 0 0 1-1.978-2.002 1.281 1.281 0 0 1 .355-.955Zm-3.813 1.481c0-.675.549-1.224 1.224-1.224h.314c.364 0 .701.159.932.432a2.35 2.35 0 0 0-.007.303c.001.358.066.701.184 1.019a1.217 1.217 0 0 1-1.11.707h-.313c-.675 0-1.224-.549-1.224-1.224v-.013Zm-.692 4.308a.73.73 0 0 1 .735-.735h.172v1.47h-.172a.735.735 0 0 1-.735-.735Zm4.975 4.694a3.075 3.075 0 0 1-3.072-3.073v-3.696h.327a2.21 2.21 0 0 0 1.676-.762c.545.614 1.34 1.001 2.222 1.001.686 0 1.336-.154 1.92-.428v3.885a3.076 3.076 0 0 1-3.073 3.073Zm4.76-4.175a.73.73 0 0 1-.52.215h-.172v-1.469h.172a.736.736 0 0 1 .52 1.254Z"/><path d="M38.276 29.28a1.382 1.382 0 0 1-1.952 0 .498.498 0 0 0-.704.705 2.37 2.37 0 0 0 1.68.695 2.37 2.37 0 0 0 1.68-.695.498.498 0 1 0-.704-.704ZM36.37 28.52a.498.498 0 0 0 .497-.498v-.721a.498.498 0 1 0-.996 0v.721c0 .275.223.498.498.498ZM38.231 28.52a.498.498 0 0 0 .498-.498v-.721a.498.498 0 1 0-.996 0v.721c0 .275.223.498.498.498ZM51.37 28.895h-6.802a.498.498 0 1 0 0 .996h6.802a.498.498 0 1 0 0-.996ZM51.37 30.97h-6.802a.498.498 0 1 0 0 .997h6.802a.498.498 0 0 0 0-.996ZM51.37 33.046h-6.802a.498.498 0 1 0 0 .996h6.802a.498.498 0 1 0 0-.996ZM32.775 39.009h-8.278a1.76 1.76 0 0 0-1.758 1.758v1.123c0 .97.789 1.759 1.758 1.759h.441a.498.498 0 1 0 0-.996h-.441a.763.763 0 0 1-.762-.763v-1.123c0-.42.342-.762.762-.762h8.278c.42 0 .763.342.763.762v1.123c0 .42-.342.763-.763.763H26.93a.498.498 0 1 0 0 .996h5.845a1.76 1.76 0 0 0 1.759-1.759v-1.123a1.76 1.76 0 0 0-1.759-1.758Z"/></g><defs><clipPath id="a"><path fill="#fff" d="M20 19.5h34v34H20z"/></clipPath></defs></svg>