<svg xmlns="http://www.w3.org/2000/svg" width="73" height="74" fill="none"><circle cx="36.5" cy="37" r="36.5" fill="#BA1735"/><g fill="#fff" clip-path="url(#a)"><path d="M29.756 25.867a1.34 1.34 0 0 0 .497 1.521l2.887 2.088-1.106 3.378a1.34 1.34 0 0 0 .494 1.524 1.34 1.34 0 0 0 1.602-.002L37 32.28l2.871 2.096c.244.178.523.267.802.267s.557-.089.8-.265a1.34 1.34 0 0 0 .493-1.524l-1.105-3.378 2.886-2.088a1.34 1.34 0 0 0 .497-1.521 1.34 1.34 0 0 0-1.294-.942h-3.564l-1.091-3.376A1.34 1.34 0 0 0 37 20.608c-.601 0-1.11.37-1.294.941l-1.092 3.376h-3.563c-.601 0-1.11.37-1.295.942Zm5.342.386a.664.664 0 0 0 .632-.46l1.24-3.835a.057.057 0 0 1 .008-.017c.008-.007.037-.007.045 0a.06.06 0 0 1 .008.017l1.24 3.836c.089.274.344.46.632.46h4.047a.06.06 0 0 1 .019.002c.009.005.018.033.014.043a.055.055 0 0 1-.014.013l-3.28 2.372a.664.664 0 0 0-.241.744l1.256 3.839a.057.057 0 0 1 .004.018c-.003.01-.023.03-.037.028a.06.06 0 0 1-.017-.01l-3.262-2.381a.663.663 0 0 0-.783 0l-3.263 2.381a.064.064 0 0 1-.016.01c-.008-.002-.035-.017-.037-.027 0-.002 0-.008.004-.02l1.256-3.838a.664.664 0 0 0-.242-.744l-3.28-2.372a.06.06 0 0 1-.013-.013c-.004-.01.005-.038.014-.043a.056.056 0 0 1 .019-.003h4.047ZM37.624 41.148h-1.249a.664.664 0 0 0 0 1.329h.585v5.18a.664.664 0 0 0 1.328 0v-5.844a.664.664 0 0 0-.664-.665ZM41.416 23.043c.17 0 .34-.065.47-.195l2.214-2.215a.664.664 0 0 0-.939-.94l-2.215 2.216a.664.664 0 0 0 .47 1.134ZM32.048 22.849a.662.662 0 0 0 .94 0c.258-.26.258-.68 0-.94l-2.216-2.215a.664.664 0 0 0-.939.94l2.215 2.215ZM43.283 30.251a.664.664 0 0 0 .312.886l2.445 1.172a.661.661 0 0 0 .886-.312.664.664 0 0 0-.312-.886l-2.445-1.172a.664.664 0 0 0-.886.312ZM27.674 32.374c.096 0 .193-.021.286-.065l2.445-1.172a.664.664 0 0 0-.574-1.198l-2.445 1.172a.664.664 0 0 0 .288 1.263Z"/><path d="M53.336 41.016h-9.297v-3.72h.996a.664.664 0 0 0 0-1.327h-16.07a.664.664 0 0 0 0 1.328h.996v3.719h-9.297a.664.664 0 0 0-.664.664v11.156c0 .367.297.664.664.664h32.672a.664.664 0 0 0 .664-.664V41.68a.664.664 0 0 0-.664-.664Zm-32.008 1.328h8.633v9.828h-8.633v-9.828Zm31.344 9.828h-8.633v-1.926a.664.664 0 0 0-1.328 0v1.926H31.289V37.297h11.422v6.973a.664.664 0 0 0 1.328 0v-1.926h8.633v9.828Z"/><path d="M43.375 46.594a.669.669 0 0 0-.47.194.67.67 0 0 0-.194.47.668.668 0 0 0 .664.664.669.669 0 0 0 .664-.664.668.668 0 0 0-.664-.664Z"/></g><defs><clipPath id="a"><path fill="#fff" d="M20 19.5h34v34H20z"/></clipPath></defs></svg>