<svg xmlns="http://www.w3.org/2000/svg" width="73" height="74" fill="none"><circle cx="36.5" cy="37" r="36.5" fill="#BA1735"/><g fill="#fff" clip-path="url(#a)"><path d="M51.492 47.013V30.387a3.126 3.126 0 0 0-2.682-3.09l1.57-1.663.116.11c.38.359.907.483 1.408.333.501-.15.873-.543.993-1.052l.757-3.194a1.432 1.432 0 0 0-.414-1.386 1.432 1.432 0 0 0-1.408-.334l-3.145.94c-.5.15-.872.544-.993 1.053-.12.509.034 1.027.415 1.387l.097.092-.775.82a.498.498 0 0 0 .725.684l1.117-1.183a.498.498 0 0 0-.02-.704l-.46-.434a.444.444 0 0 1-.13-.432.443.443 0 0 1 .31-.328l3.144-.941a.443.443 0 0 1 .439.104.443.443 0 0 1 .13.432l-.758 3.194a.444.444 0 0 1-.31.328.443.443 0 0 1-.438-.104l-.479-.452a.5.5 0 0 0-.704.02l-13.86 14.686a.498.498 0 0 1-.714.01l-4.16-4.16a.498.498 0 0 0-.67-.03L26.027 38.9v-1.296l4.627-3.857a.496.496 0 0 1 .67.03l4.079 4.078a.497.497 0 0 0 .714-.01l10.674-11.31a.498.498 0 0 0-.724-.684l-1.336 1.415H40.54v-4.254a2.996 2.996 0 0 0-2.993-2.993h-9.133a2.996 2.996 0 0 0-2.993 2.993v4.262a3.125 3.125 0 0 0-2.913 3.114v16.626A3.01 3.01 0 0 0 20 49.976a3.01 3.01 0 0 0 3.006 3.006h27.988A3.01 3.01 0 0 0 54 49.976a3.01 3.01 0 0 0-2.508-2.963ZM30.883 36.15l3.836 3.837a1.498 1.498 0 0 0 2.144-.03l8.657-9.172h1.62c.46 0 .834.374.834.834v10.26h-1.211a1.692 1.692 0 0 0-1.614-1.19c-.758 0-1.401.502-1.614 1.19H41.33a1.692 1.692 0 0 0-1.614-1.19c-.758 0-1.401.502-1.614 1.19h-2.204a1.692 1.692 0 0 0-1.614-1.19c-.758 0-1.4.502-1.614 1.19h-2.204a1.692 1.692 0 0 0-1.614-1.19c-.758 0-1.4.502-1.614 1.19h-1.21v-1.683l4.853-4.046Zm14.959 6.227a.694.694 0 1 1-1.388-.001.694.694 0 0 1 1.388.001Zm-5.432 0a.694.694 0 1 1-1.387-.001.694.694 0 0 1 1.387.001Zm-5.432 0a.694.694 0 1 1-1.387-.001.694.694 0 0 1 1.387.001Zm-5.432 0a.694.694 0 1 1-1.387-.001.694.694 0 0 1 1.387.001Zm6.2-5.59-3.716-3.715a1.486 1.486 0 0 0-2.014-.091l-3.988 3.325v-4.687c0-.351.22-.657.536-.778.51.402 1.152.644 1.85.644h3.411l2.461 2.46a1.588 1.588 0 0 0 1.756.35c.613-.254.994-.825.994-1.488v-1.322h.512c.73 0 1.4-.264 1.92-.7h1.942l-5.665 6.002Zm8.046-8.525-1.442 1.527h-2.105c.19-.393.295-.833.295-1.297v-.23h3.252ZM26.417 23.01c0-1.101.896-1.997 1.997-1.997h9.133c1.1 0 1.996.896 1.996 1.997v5.481c0 1.1-.895 1.996-1.996 1.996h-1.01a.498.498 0 0 0-.498.498v1.82c0 .382-.29.532-.38.568a.603.603 0 0 1-.67-.133l-2.606-2.607a.498.498 0 0 0-.352-.146h-3.617c-1.101 0-1.997-.895-1.997-1.996v-5.481Zm-.996 5.26v.221c0 .582.168 1.125.456 1.585a1.833 1.833 0 0 0-.846 1.542v12.093c0 .955.776 1.73 1.73 1.73h3.618a.498.498 0 0 0 0-.995h-3.618a.735.735 0 0 1-.734-.735v-.836h1.211c.213.689.856 1.19 1.614 1.19.758 0 1.4-.502 1.614-1.19h2.204c.213.689.856 1.19 1.614 1.19.758 0 1.4-.502 1.614-1.19h2.204c.213.689.856 1.19 1.614 1.19.758 0 1.4-.502 1.614-1.19h2.204c.213.689.856 1.19 1.614 1.19.758 0 1.4-.502 1.614-1.19h1.21v.836c0 .405-.328.735-.733.735H32.361a.498.498 0 1 0 0 .996h14.878c.954 0 1.73-.776 1.73-1.73V31.618c0-1.01-.821-1.83-1.83-1.83h-.68l1.44-1.527h.472c1.172 0 2.125.953 2.125 2.125v16.584H23.504V30.387c0-1.102.842-2.01 1.917-2.115Zm16.163 19.696a1.714 1.714 0 0 1-1.636 1.212h-5.896c-.77 0-1.422-.512-1.636-1.212h9.168Zm9.41 4.019H23.006a2.012 2.012 0 0 1-2.01-2.01c0-1.108.902-2.01 2.01-2.01h8.387a2.71 2.71 0 0 0 2.66 2.209h5.895a2.71 2.71 0 0 0 2.66-2.208h8.386c1.108 0 2.01.901 2.01 2.01 0 1.107-.902 2.009-2.01 2.009Z"/><path d="M42.566 36.914h3.843a.498.498 0 1 0 0-.996h-3.843a.498.498 0 0 0 0 .996ZM40.71 38.91h5.698a.498.498 0 1 0 0-.995h-5.697a.498.498 0 0 0 0 .996ZM28.37 23.384h6.028a.498.498 0 0 0 0-.996h-6.029a.498.498 0 0 0 0 .996ZM28.37 25.57h6.028a.498.498 0 0 0 0-.995h-6.029a.498.498 0 0 0 0 .996ZM28.37 27.757h6.028a.498.498 0 0 0 0-.996h-6.029a.498.498 0 0 0 0 .996Z"/></g><defs><clipPath id="a"><path fill="#fff" d="M20 19.5h34v34H20z"/></clipPath></defs></svg>