<svg xmlns="http://www.w3.org/2000/svg" width="73" height="74" fill="none"><circle cx="36.5" cy="37" r="36.5" fill="#BA1735"/><g fill="#fff" clip-path="url(#a)"><path d="M51.69 38.263c-1.563-1.556-3.369-.1-3.369-.1v-8.188a.498.498 0 1 0-.995 0v8.889s-2.375 1.872-3.396 2.33V26.45c0-.685.557-1.242 1.243-1.242h.91c.685 0 1.242.557 1.242 1.242v1.486a.498.498 0 1 0 .996 0V26.45a2.241 2.241 0 0 0-2.238-2.238h-.91a2.241 2.241 0 0 0-2.24 2.238v15.138c-.296.083-.601.14-.91.17v-10.5c0-1.24-1.01-2.25-2.25-2.25h-.889c-1.24 0-2.25 1.01-2.25 2.25v5.074l-.911.484v-1.688a2.028 2.028 0 0 0-2.025-2.026H32.36a2.028 2.028 0 0 0-2.025 2.026v4.548l-1.627.863-4.566 1.305a3.13 3.13 0 0 0-1.868 1.465 3.13 3.13 0 0 0-.313 2.353l.51 1.965a.498.498 0 1 0 .964-.25l-.51-1.965a2.139 2.139 0 0 1 1.491-2.61l4.175-1.194 3.138 8.376c.21.56.177 2.16-1.483 2.75l-3.155.717c-1.1.25-2.183-.41-2.467-1.502l-.64-2.464a.498.498 0 0 0-.965.25l.641 2.465a3.055 3.055 0 0 0 2.96 2.3c1.006 0 3.847-.795 3.847-.795a3.069 3.069 0 0 0 2.323-3.627l10.916-2.672a6.282 6.282 0 0 0 2.478-1.24l5.312-4.365c1.62-1.437.67-3.065.193-3.538Zm-12.805-8.259h.888c.69 0 1.253.563 1.253 1.254v10.525l-3.143-.002c-.288-.002-.089-.193-.073-.206l.905-.733c.845-.684 1.396-1.635 1.64-2.827a1.957 1.957 0 0 0-.753-1.975 1.956 1.956 0 0 0-1.971-.23v-4.552c0-.691.562-1.254 1.254-1.254Zm-7.553 5.124c0-.568.462-1.03 1.03-1.03h1.336c.567 0 1.03.462 1.03 1.03v2.217l-3.396 1.802v-4.02Zm19.532 5.903-5.312 4.365a5.273 5.273 0 0 1-2.082 1.042L32.474 49.13l-2.957-7.891 8.443-4.482a.958.958 0 0 1 1.045.08c.311.233.451.599.373.98-.195.959-.63 1.716-1.29 2.25l-.905.734a1.1 1.1 0 0 0-.348 1.235c.16.45.57.741 1.048.741l3.629.002h.002a6.21 6.21 0 0 0 3.59-1.136l4.056-2.852a1.403 1.403 0 0 1 1.817.168c.28.285.827 1.133-.112 2.072Z"/><path d="M29.823 50.303c0-1.082-.88-1.963-1.963-1.963-1.081 0-1.962.88-1.962 1.963 0 1.081.88 1.962 1.962 1.962 1.082 0 1.963-.88 1.963-1.962Zm-2.928 0a.967.967 0 0 1 1.932 0 .967.967 0 0 1-1.933 0ZM24.279 36.138l7.24-7.296 1.628.842a1.532 1.532 0 0 0 1.767-.257l3.94-3.793s-.108 1.948 1.533 1.948c.844 0 1.532-.688 1.532-1.532V22.017c-.006-1.048-.772-1.517-1.532-1.517h-3.983c-.845 0-1.532.687-1.532 1.532 0 1.684 1.714 1.532 1.714 1.532l-3.006 2.894-1.652-.854a1.526 1.526 0 0 0-1.792.28l-8.032 8.095c-.595.6-.591 1.572.008 2.167.29.286 1.276.882 2.167-.008ZM22.81 34.68l8.032-8.094c.104-.105.27-.287.627-.099l1.97 1.019c.189.098.42.064.573-.084l4.154-3.998a.498.498 0 0 0-.346-.857h-1.417a.537.537 0 0 1 0-1.072h3.983c.146 0 .536 0 .536.533v4.021a.537.537 0 0 1-1.072 0v-1.587a.498.498 0 0 0-.844-.359l-4.784 4.605a.536.536 0 0 1-.618.09l-1.953-1.01a.498.498 0 0 0-.582.092l-7.498 7.555c-.327.327-.657.103-.758.003a.537.537 0 0 1-.003-.758Z"/></g><defs><clipPath id="a"><path fill="#fff" d="M20 20.5h34v34H20z"/></clipPath></defs></svg>