<svg xmlns="http://www.w3.org/2000/svg" width="60" height="60" fill="#BA1735"><path d="M45.842 35.435H24.184l11.966-6.668a2.61 2.61 0 0 0 1.007-3.54l-1.784-3.198a2.606 2.606 0 0 0-3.54-1.003L26.855 23.8c.585-1.175.95-2.327 1.085-3.445.224-1.863-.199-3.544-1.223-4.862-1.664-2.142-4.571-2.854-7.068-1.732a.879.879 0 0 0 .72 1.603c1.755-.789 3.795-.292 4.96 1.207 1.674 2.154 1.032 5.522-1.71 9.032l-1.061.592-.769-1.377a3.318 3.318 0 0 0-.754-.919c.187-1.117.707-2.564 1.282-3.509a.879.879 0 1 0-1.5-.914c-.62 1.017-1.157 2.426-1.427 3.673a3.306 3.306 0 0 0-2.14.378l-.305.17c-.12-2.536.273-4.659 1.159-6.19a.879.879 0 0 0-1.521-.88c-1.176 2.031-1.624 4.727-1.336 8.017l-1.062.591C9.701 21.902 5.313 21.22 2.368 23.43c-2.13 1.599-2.934 4.428-1.952 6.88 1.002 2.502 3.506 4.025 6.957 4.347l-5.096 2.84a2.605 2.605 0 0 0-1.004 3.536l1.783 3.2a2.604 2.604 0 0 0 3.54 1.005l5.743-3.2v14.315c0 1.72 1.4 3.12 3.122 3.12h29.393c1.721 0 3.122-1.4 3.122-3.12V37.568a2.136 2.136 0 0 0-2.134-2.133Zm-29.29 2.241-2.605-4.67 7.932-4.42 2.604 4.67-3.966 2.21a.874.874 0 0 0-.372.208l-3.593 2.002ZM32.69 22.561a.847.847 0 0 1 1.149.325l1.782 3.196a.849.849 0 0 1-.328 1.15L26.02 32.4l-2.605-4.671 9.276-5.169Zm-14.585 2.502a1.558 1.558 0 0 1 1.2-.137c.408.116.745.381.949.749l.768 1.375-7.93 4.42-.77-1.38a1.555 1.555 0 0 1-.193-.881l.002-.025a1.564 1.564 0 0 1 .802-1.238l5.172-2.883ZM2.048 29.656c-.687-1.716-.122-3.698 1.375-4.82 2.156-1.617 5.486-1.103 9.064 1.347l-.408.227a3.304 3.304 0 0 0-1.434 1.582c-1.16-.366-2.203-.566-3.696-.73a.879.879 0 0 0-.191 1.747c1.642.18 2.609.404 3.635.748.054.413.185.815.394 1.189l.769 1.38-.96.534c-4.361.477-7.551-.714-8.548-3.204ZM5.74 43.7a.858.858 0 0 1-1.15-.324l-1.782-3.2a.844.844 0 0 1 .324-1.146l8.13-4.53a.864.864 0 0 0 .074-.041l1.075-.6 2.604 4.672-2.211 1.233-.014.007-7.05 3.93Zm8.356 12.65V41.058l6.932-3.864h4.053v7.784a.879.879 0 0 0 1.758 0v-7.784h6.635v20.522H26.84v-8.574a.879.879 0 0 0-1.758 0v8.574h-9.62a1.365 1.365 0 0 1-1.365-1.363Zm32.12 0c0 .753-.611 1.364-1.363 1.364h-9.621V37.193h10.61a.38.38 0 0 1 .375.375v18.784Z"/><path d="M42.62 15.745c.011.108 1.126 10.854-2.636 14.934a.879.879 0 1 0 1.292 1.191c4.298-4.66 3.142-15.841 3.09-16.315a.88.88 0 0 0-1.747.19ZM50.658 14.438c-1.487 2.277-1.959 4.309-1.978 4.394a.878.878 0 0 0 1.713.391c.005-.018.44-1.857 1.771-3.876 1.752-2.656 4.161-4.366 7.16-5.082a.879.879 0 1 0-.409-1.71c-3.421.817-6.277 2.851-8.257 5.883ZM32.63 9.61a.851.851 0 0 1-.002.176l-.206 2.557c-.03.271-.088.878.407 1.253.504.381 1.096.142 1.358.037l2.349-.98a.498.498 0 0 1 .203-.002l2.368.985c.149.06.416.168.713.168.206 0 .427-.052.633-.207.494-.374.436-.982.407-1.253l-.203-2.554a.996.996 0 0 1-.002-.178l1.706-2.057c.197-.224.586-.677.403-1.264-.186-.596-.792-.747-1.05-.811l-2.595-.643-1.364-2.278c-.126-.212-.459-.774-1.11-.776h-.003c-.65 0-.986.56-1.113.772l-1.354 2.26-.012.022-2.596.643c-.258.065-.863.216-1.048.812-.183.587.22 1.056.402 1.264L32.63 9.61Zm2.04-3.088c.586-.145.797-.435.979-.745l.992-1.657 1 1.67c.181.304.392.589.97.732L40.538 7l-1.241 1.495c-.408.482-.424 1.016-.393 1.431l.142 1.781-1.627-.677a2.136 2.136 0 0 0-1.553-.001l-1.63.679.145-1.784c.028-.376.02-.933-.388-1.423l-1.249-1.502 1.926-.477ZM59.548 27.762c.185-.209.588-.676.406-1.264-.185-.598-.793-.749-1.052-.813l-2.591-.643-1.367-2.283c-.127-.21-.463-.771-1.113-.771h-.003c-.649.002-.982.56-1.108.773l-1.357 2.26-.013.021-2.59.643c-.26.064-.868.215-1.053.813-.181.588.221 1.055.407 1.263l1.705 2.055a.958.958 0 0 1-.002.174l-.208 2.557c-.027.27-.083.883.413 1.256.503.378 1.093.14 1.353.034l2.35-.979a.511.511 0 0 1 .206-.002l2.364.985c.149.06.416.168.713.168.206 0 .426-.052.631-.206.497-.373.44-.985.413-1.256l-.207-2.553a.997.997 0 0 1-.002-.178l1.705-2.054Zm-3.063.938c-.408.482-.424 1.016-.392 1.432l.144 1.78-1.63-.679a2.15 2.15 0 0 0-1.552 0l-1.63.68.144-1.785c.032-.412.015-.947-.387-1.422l-1.247-1.502 1.929-.478c.581-.145.792-.435.973-.744l.995-1.658.957 1.598.036.06c.18.31.391.599.974.744l1.927.478-1.24 1.495ZM50.624 9.315a4.4 4.4 0 0 0 4.398-4.392A4.401 4.401 0 0 0 50.624.527a4.401 4.401 0 0 0-4.397 4.396 4.4 4.4 0 0 0 4.398 4.392Zm0-7.03a2.642 2.642 0 0 1 2.64 2.638 2.64 2.64 0 0 1-5.279 0 2.641 2.641 0 0 1 2.64-2.638Z"/></svg>